<svg width="30" height="30" viewBox="0 0 30 30" fill="none" xmlns="http://www.w3.org/2000/svg">
    <ellipse cx="14.77" cy="14.8" rx="7.298" ry="7.906" fill="#fff"/>
    <path d="m13.067 17.598-2.645-2.645a1.116 1.116 0 0 0-.821-.335c-.324 0-.608.122-.852.365-.222.223-.334.507-.334.851 0 .345.112.629.334.852l3.467 3.466c.223.223.507.334.851.334.345 0 .629-.111.851-.334l6.903-6.902c.223-.223.334-.497.334-.821 0-.325-.121-.608-.365-.852-.223-.223-.506-.334-.851-.334s-.628.111-.851.334l-6.02 6.02zm1.703 9.973c-1.683 0-3.264-.32-4.743-.958a12.274 12.274 0 0 1-3.862-2.6 12.276 12.276 0 0 1-2.6-3.861c-.638-1.48-.958-3.06-.958-4.743 0-1.683.32-3.264.959-4.744a12.274 12.274 0 0 1 2.599-3.861 12.291 12.291 0 0 1 3.862-2.6c1.48-.639 3.06-.958 4.743-.958 1.682 0 3.264.32 4.743.957a12.29 12.29 0 0 1 3.862 2.6 12.274 12.274 0 0 1 2.599 3.862c.639 1.48.958 3.061.958 4.744 0 1.682-.319 3.263-.958 4.743a12.276 12.276 0 0 1-2.6 3.862 12.273 12.273 0 0 1-3.86 2.599c-1.48.639-3.062.958-4.744.958z" fill="#D5D5D5"/>
</svg>
